HIERARCHY
ROOT Hips
{
  OFFSET 5.80788e-005 67.184 3.4734
  CHANNELS 6 Xposition Yposition Zposition Zrotation Xrotation Yrotation
  JOINT Chest
  {
    OFFSET 0 8.7983 -4.7612
    CHANNELS 6 Xposition Yposition Zposition Zrotation Xrotation Yrotation
    JOINT Chest2
    {
      OFFSET 0 8.0291 0.4195
      CHANNELS 6 Xposition Yposition Zposition Zrotation Xrotation Yrotation
      JOINT Chest3
      {
        OFFSET 0 9.9351 -2.2114
        CHANNELS 6 Xposition Yposition Zposition Zrotation Xrotation Yrotation
        JOINT Neck
        {
          OFFSET 0 22.3885 -0.4656
          CHANNELS 6 Xposition Yposition Zposition Zrotation Xrotation Yrotation
          JOINT Head
          {
            OFFSET -0.0001 12.643 3.4389
            CHANNELS 6 Xposition Yposition Zposition Zrotation Xrotation Yrotation
            End Site
            {
              OFFSET 0.0001 17.6655 0.5274
            }
          }
        }
        JOINT LeftCollar
        {
          OFFSET 2.2603 21.606 7.4023
          CHANNELS 6 Xposition Yposition Zposition Zrotation Xrotation Yrotation
          JOINT LeftShoulder
          {
            OFFSET 13.5163 -1.1332 -5.0146
            CHANNELS 6 Xposition Yposition Zposition Zrotation Xrotation Yrotation
            JOINT LeftElbow
            {
              OFFSET -0.0995 -28.05 -0.2431
              CHANNELS 6 Xposition Yposition Zposition Zrotation Xrotation Yrotation
              JOINT LeftWrist
              {
                OFFSET 0.0679 -23.3996 -0.1402
                CHANNELS 6 Xposition Yposition Zposition Zrotation Xrotation Yrotation
                JOINT LeftFinger1
                {
                  OFFSET 0.7932 -9.069 2.5189
                  CHANNELS 6 Xposition Yposition Zposition Zrotation Xrotation Yrotation
                  JOINT LeftFinger11
                  {
                    OFFSET -0.8272 -3.3923 0.5977
                    CHANNELS 6 Xposition Yposition Zposition Zrotation Xrotation Yrotation
                    JOINT LeftFinger12
                    {
                      OFFSET -0.5649 -2.3158 0.4082
                      CHANNELS 6 Xposition Yposition Zposition Zrotation Xrotation Yrotation
                      End Site
                      {
                        OFFSET -0.4919 -1.6479 0.2673
                      }
                    }
                  }
                }
                JOINT LeftFinger2
                {
                  OFFSET 0.9159 -9.2044 0.2193
                  CHANNELS 6 Xposition Yposition Zposition Zrotation Xrotation Yrotation
                  JOINT LeftFinger21
                  {
                    OFFSET 0.0117 -4.1944 -0.0248
                    CHANNELS 6 Xposition Yposition Zposition Zrotation Xrotation Yrotation
                    JOINT LeftFinger22
                    {
                      OFFSET 0.0071 -2.3249 -0.0142
                      CHANNELS 6 Xposition Yposition Zposition Zrotation Xrotation Yrotation
                      End Site
                      {
                        OFFSET -0.1475 -2.0882 0.0028
                      }
                    }
                  }
                }
                JOINT LeftFinger3
                {
                  OFFSET 0.6113 -8.7231 -2.0637
                  CHANNELS 6 Xposition Yposition Zposition Zrotation Xrotation Yrotation
                  JOINT LeftFinger31
                  {
                    OFFSET -0.1927 -3.8059 -0.2383
                    CHANNELS 6 Xposition Yposition Zposition Zrotation Xrotation Yrotation
                    JOINT LeftFinger32
                    {
                      OFFSET -0.1091 -2.1688 -0.1362
                      CHANNELS 6 Xposition Yposition Zposition Zrotation Xrotation Yrotation
                      End Site
                      {
                        OFFSET -0.2358 -1.9176 -0.0906
                      }
                    }
                  }
                }
                JOINT LeftFinger4
                {
                  OFFSET -0.6151 -8.0947 -3.5641
                  CHANNELS 6 Xposition Yposition Zposition Zrotation Xrotation Yrotation
                  JOINT LeftFinger41
                  {
                    OFFSET -0.4882 -2.341 -0.6462
                    CHANNELS 6 Xposition Yposition Zposition Zrotation Xrotation Yrotation
                    JOINT LeftFinger42
                    {
                      OFFSET -0.3575 -1.7167 -0.4742
                      CHANNELS 6 Xposition Yposition Zposition Zrotation Xrotation Yrotation
                      End Site
                      {
                        OFFSET -0.4187 -1.5237 -0.3496
                      }
                    }
                  }
                }
                JOINT LeftFinger0
                {
                  OFFSET -1.42 -1.8761 1.4223
                  CHANNELS 6 Xposition Yposition Zposition Zrotation Xrotation Yrotation
                  JOINT LeftFinger01
                  {
                    OFFSET -1.1471 -3.4929 2.6334
                    CHANNELS 6 Xposition Yposition Zposition Zrotation Xrotation Yrotation
                    JOINT LeftFinger02
                    {
                      OFFSET -0.823 -2.3 1.6571
                      CHANNELS 6 Xposition Yposition Zposition Zrotation Xrotation Yrotation
                      End Site
                      {
                        OFFSET -0.5822 -1.6914 1.1582
                      }
                    }
                  }
                }
              }
            }
          }
        }
        JOINT RightCollar
        {
          OFFSET -2.2603 21.606 7.4023
          CHANNELS 6 Xposition Yposition Zposition Zrotation Xrotation Yrotation
          JOINT RightShoulder
          {
            OFFSET -13.5187 -1.1334 -5.0155
            CHANNELS 6 Xposition Yposition Zposition Zrotation Xrotation Yrotation
            JOINT RightElbow
            {
              OFFSET 0.0994 -28.0499 -0.2431
              CHANNELS 6 Xposition Yposition Zposition Zrotation Xrotation Yrotation
              JOINT RightWrist
              {
                OFFSET -0.0679 -23.3996 -0.1402
                CHANNELS 6 Xposition Yposition Zposition Zrotation Xrotation Yrotation
                JOINT RightFinger1
                {
                  OFFSET -0.7932 -9.0691 2.5189
                  CHANNELS 6 Xposition Yposition Zposition Zrotation Xrotation Yrotation
                  JOINT RightFinger11
                  {
                    OFFSET 0.8272 -3.3923 0.5977
                    CHANNELS 6 Xposition Yposition Zposition Zrotation Xrotation Yrotation
                    JOINT RightFinger12
                    {
                      OFFSET 0.565 -2.3158 0.4082
                      CHANNELS 6 Xposition Yposition Zposition Zrotation Xrotation Yrotation
                      End Site
                      {
                        OFFSET 0.4919 -1.6479 0.2673
                      }
                    }
                  }
                }
                JOINT RightFinger2
                {
                  OFFSET -0.916 -9.2044 0.2193
                  CHANNELS 6 Xposition Yposition Zposition Zrotation Xrotation Yrotation
                  JOINT RightFinger21
                  {
                    OFFSET -0.0117 -4.1944 -0.0248
                    CHANNELS 6 Xposition Yposition Zposition Zrotation Xrotation Yrotation
                    JOINT RightFinger22
                    {
                      OFFSET -0.0071 -2.3249 -0.0142
                      CHANNELS 6 Xposition Yposition Zposition Zrotation Xrotation Yrotation
                      End Site
                      {
                        OFFSET 0.1475 -2.0882 0.0028
                      }
                    }
                  }
                }
                JOINT RightFinger3
                {
                  OFFSET -0.6113 -8.7231 -2.0637
                  CHANNELS 6 Xposition Yposition Zposition Zrotation Xrotation Yrotation
                  JOINT RightFinger31
                  {
                    OFFSET 0.1927 -3.8059 -0.2383
                    CHANNELS 6 Xposition Yposition Zposition Zrotation Xrotation Yrotation
                    JOINT RightFinger32
                    {
                      OFFSET 0.1091 -2.1688 -0.1362
                      CHANNELS 6 Xposition Yposition Zposition Zrotation Xrotation Yrotation
                      End Site
                      {
                        OFFSET 0.2358 -1.9176 -0.0906
                      }
                    }
                  }
                }
                JOINT RightFinger4
                {
                  OFFSET 0.6151 -8.0947 -3.564
                  CHANNELS 6 Xposition Yposition Zposition Zrotation Xrotation Yrotation
                  JOINT RightFinger41
                  {
                    OFFSET 0.4882 -2.341 -0.6462
                    CHANNELS 6 Xposition Yposition Zposition Zrotation Xrotation Yrotation
                    JOINT RightFinger42
                    {
                      OFFSET 0.3574 -1.7166 -0.4742
                      CHANNELS 6 Xposition Yposition Zposition Zrotation Xrotation Yrotation
                      End Site
                      {
                        OFFSET 0.4187 -1.5237 -0.3496
                      }
                    }
                  }
                }
                JOINT RightFinger0
                {
                  OFFSET 1.4199 -1.8761 1.4221
                  CHANNELS 6 Xposition Yposition Zposition Zrotation Xrotation Yrotation
                  JOINT RightFinger01
                  {
                    OFFSET 1.1472 -3.4929 2.6336
                    CHANNELS 6 Xposition Yposition Zposition Zrotation Xrotation Yrotation
                    JOINT RightFinger02
                    {
                      OFFSET 0.8229 -2.3 1.6571
                      CHANNELS 6 Xposition Yposition Zposition Zrotation Xrotation Yrotation
                      End Site
                      {
                        OFFSET 0.5822 -1.6914 1.1582
                      }
                    }
                  }
                }
              }
            }
          }
        }
      }
    }
  }
  JOINT RightHip
  {
    OFFSET -9.412 3.9771 -0.7758
    CHANNELS 6 Xposition Yposition Zposition Zrotation Xrotation Yrotation
    JOINT RightKnee
    {
      OFFSET -0.7531 -40.938 0
      CHANNELS 6 Xposition Yposition Zposition Zrotation Xrotation Yrotation
      JOINT RightAnkle
      {
        OFFSET 0 -40.1986 0
        CHANNELS 6 Xposition Yposition Zposition Zrotation Xrotation Yrotation
        JOINT RightToe
        {
          OFFSET 0 -4.4182 9.239
          CHANNELS 6 Xposition Yposition Zposition Zrotation Xrotation Yrotation
          End Site
          {
            OFFSET 0 0 6.1981
          }
        }
      }
    }
  }
  JOINT LeftHip
  {
    OFFSET 9.4119 3.9773 -0.7758
    CHANNELS 6 Xposition Yposition Zposition Zrotation Xrotation Yrotation
    JOINT LeftKnee
    {
      OFFSET 0.7532 -40.9383 0
      CHANNELS 6 Xposition Yposition Zposition Zrotation Xrotation Yrotation
      JOINT LeftAnkle
      {
        OFFSET 0 -40.1986 0
        CHANNELS 6 Xposition Yposition Zposition Zrotation Xrotation Yrotation
        JOINT LeftToe
        {
          OFFSET 0 -4.4182 9.239
          CHANNELS 6 Xposition Yposition Zposition Zrotation Xrotation Yrotation
          End Site
          {
            OFFSET 0 0 6.1981
          }
        }
      }
    }
  }
}
MOTION
Frames:	4
Frame Time:	0.0333333
39.6061 17.9905 61.3468 89.3108 -89.7452 -90.4221 0 8.7983 -4.7612 0.248993 4.46333 -0.163182 0 8.0291 0.4195 0.513129 8.92591 -0.347477 0 9.9351 -2.2114 0.51313 8.92593 -0.347478 -7.10543e-015 22.3885 -0.4656 -2.09291e-006 15.3479 1.42244e-006 -0.0001 12.643 3.4389 2.27011e-007 -24.0027 1.42772e-007 2.2603 21.606 7.4023 -25.0091 15.2493 0.160713 13.5163 -1.1332 -5.0146 125.663 -57.7213 36.39 -0.0995 -28.05 -0.2431 -99.4838 -84.5076 -92.3596 0.0679 -23.3996 -0.1402 49.2529 23.2635 28.0735 0.7932 -9.069 2.5189 -2.48481e-014 -6.36111e-015 1.27222e-014 -0.8272 -3.3923 0.5977 -2.50469e-014 -3.18055e-015 1.11319e-014 -0.5649 -2.3158 0.4082 -2.56432e-014 -3.18055e-015 1.11319e-014 0.9159 -9.2044 0.2193 -2.48481e-014 -6.36111e-015 1.27222e-014 0.0117 -4.1944 -0.0248 -0.0128239 0.00232792 8.35964e-005 0.0071 -2.3249 -0.0142 1.39149e-015 -1.90833e-014 -0 0.6113 -8.7231 -2.0637 -2.48481e-014 -6.36111e-015 1.27222e-014 -0.1927 -3.8059 -0.2383 -0.0160656 0.0029982 0.000856458 -0.1091 -2.1688 -0.1362 7.95139e-016 0 -0 -0.6151 -8.0947 -3.5641 -2.48481e-014 -6.36111e-015 1.27222e-014 -0.4882 -2.341 -0.6462 -0.0126386 0.00313511 0.00283464 -0.3575 -1.7167 -0.4742 -7.95139e-016 3.18055e-015 -7.95139e-016 -1.42 -1.8761 1.4223 -2.48481e-014 -6.36111e-015 1.27222e-014 -1.1471 -3.4929 2.6334 -2.50469e-014 -3.18055e-015 1.11319e-014 -0.823 -2.3 1.6571 -2.56432e-014 -3.18055e-015 1.11319e-014 -2.2603 21.606 7.4023 22.2831 5.56347 -9.03178 -13.5187 -1.1334 -5.0155 -106.297 -69.9074 -20.7298 0.0994 -28.0499 -0.2431 57.4313 -84.2964 49.5905 -0.0679 -23.3996 -0.1402 -52.394 19.5209 -12.8802 -0.7932 -9.0691 2.5189 3.41162e-007 -7.00791e-008 1.67317e-006 0.8272 -3.3923 0.5977 7.95139e-016 3.18055e-015 3.18055e-015 0.565 -2.3158 0.4082 1.59028e-015 -3.18055e-015 4.77083e-015 -0.916 -9.2044 0.2193 3.41162e-007 -7.00791e-008 1.67317e-006 -0.0117 -4.1944 -0.0248 0.0129316 0.00231696 -8.90624e-005 -0.0071 -2.3249 -0.0142 3.40998e-007 1.49666e-006 1.67318e-006 -0.6113 -8.7231 -2.0637 3.41162e-007 -7.00791e-008 1.67317e-006 0.1927 -3.8059 -0.2383 0.0162754 0.00302304 -0.000865315 0.1091 -2.1688 -0.1362 0 0 -0 0.6151 -8.0947 -3.564 3.41162e-007 -7.00791e-008 1.67317e-006 0.4882 -2.341 -0.6462 0.0146223 0.00368346 -0.00326794 0.3574 -1.7166 -0.4742 5.29669e-031 9.54166e-015 -3.18055e-015 1.4199 -1.8761 1.4221 3.41162e-007 -7.00791e-008 1.67317e-006 1.1472 -3.4929 2.6336 7.95139e-016 3.18055e-015 3.18055e-015 0.8229 -2.3 1.6571 1.59028e-015 -3.18055e-015 4.77083e-015 -9.412 3.9771 -0.7758 -92.2223 -43.6082 -109.665 -0.7531 -40.938 0 -149.417 69.2884 150.615 0 -40.1986 0 -10.1302 41.248 5.49976 0 -4.4182 9.239 -1.39149e-015 3.18055e-015 5.1684e-015 9.4119 3.9773 -0.7758 92.22 -43.6054 109.652 0.7532 -40.9383 7.10543e-015 149.421 69.2856 -150.632 0 -40.1986 0 10.1232 41.2451 -5.50594 0 -4.4182 9.239 -7.2891e-006 5.89303e-006 -2.41577e-006 
39.6061 17.9905 61.3468 89.3108 -89.7452 -90.4221 -7.10543e-015 8.7983 -4.7612 0.249385 4.2735 -0.161161 0 8.0291 0.4195 0.513013 8.54624 -0.34247 0 9.9351 -2.2114 0.513014 8.54628 -0.342471 7.10543e-015 22.3885 -0.4656 -5.52587e-006 15.6977 3.22707e-006 -0.0001 12.643 3.4389 -1.70681e-007 -24.0027 -1.05622e-007 2.2603 21.606 7.4023 -25.1126 15.9306 -0.197737 13.5163 -1.1332 -5.0146 125.312 -57.5038 36.0819 -0.0995 -28.05 -0.2431 -87.6092 -84.577 -80.4962 0.0679 -23.3996 -0.1402 48.7012 22.8771 28.6652 0.7932 -9.069 2.5189 -1.98785e-016 6.36111e-015 1.59028e-015 -0.8272 -3.3923 0.5977 7.95139e-016 3.18055e-015 3.18055e-015 -0.5649 -2.3158 0.4082 -1.39149e-015 3.18055e-015 2.38542e-015 0.9159 -9.2044 0.2193 -1.98785e-016 6.36111e-015 1.59028e-015 0.0117 -4.1944 -0.0248 -0.0128193 0.00232532 8.57678e-005 0.0071 -2.3249 -0.0142 -9.93923e-016 -6.36111e-015 -7.95139e-016 0.6113 -8.7231 -2.0637 -1.98785e-016 6.36111e-015 1.59028e-015 -0.1927 -3.8059 -0.2383 -0.0160296 0.00299641 0.000856782 -0.1091 -2.1688 -0.1362 -1.19271e-015 0 -7.95139e-016 -0.6151 -8.0947 -3.5641 -1.98785e-016 6.36111e-015 1.59028e-015 -0.4882 -2.341 -0.6462 -0.0125318 0.00310998 0.00281222 -0.3575 -1.7167 -0.4742 1.59028e-015 0 -0 -1.42 -1.8761 1.4223 -1.98785e-016 6.36111e-015 1.59028e-015 -1.1471 -3.4929 2.6334 7.95139e-016 3.18055e-015 3.18055e-015 -0.823 -2.3 1.6571 -1.39149e-015 3.18055e-015 2.38542e-015 -2.2603 21.606 7.4023 22.323 6.20219 -8.71557 -13.5187 -1.1334 -5.0155 -106.293 -69.9064 -20.7263 0.0994 -28.0499 -0.2431 48.7042 -83.6042 40.8872 -0.0679 -23.3996 -0.1402 -51.9382 19.2173 -13.537 -0.7932 -9.0691 2.5189 -1.76556e-031 -3.18055e-015 -3.18055e-015 0.8272 -3.3923 0.5977 7.95139e-016 3.18055e-015 -4.77083e-015 0.565 -2.3158 0.4082 2.64834e-031 3.18055e-015 -4.77083e-015 -0.916 -9.2044 0.2193 -1.76556e-031 -3.18055e-015 -3.18055e-015 -0.0117 -4.1944 -0.0248 0.01297 0.00232058 -8.8163e-005 -0.0071 -2.3249 -0.0142 8.82781e-031 6.36111e-015 -7.95139e-015 -0.6113 -8.7231 -2.0637 -1.76556e-031 -3.18055e-015 -3.18055e-015 0.1927 -3.8059 -0.2383 0.0162896 0.00302446 -0.000868425 0.1091 -2.1688 -0.1362 -2.38542e-015 0 1.59028e-015 0.6151 -8.0947 -3.564 -1.76556e-031 -3.18055e-015 -3.18055e-015 0.4882 -2.341 -0.6462 0.0146262 0.00368759 -0.00326781 0.3574 -1.7166 -0.4742 7.95139e-016 3.18055e-015 3.18055e-015 1.4199 -1.8761 1.4221 -1.76556e-031 -3.18055e-015 -3.18055e-015 1.1472 -3.4929 2.6336 7.95139e-016 3.18055e-015 -4.77083e-015 0.8229 -2.3 1.6571 2.64834e-031 3.18055e-015 -4.77083e-015 -9.412 3.9771 -0.7758 -92.2223 -43.6082 -109.665 -0.7531 -40.938 0 -149.417 69.2884 150.615 0 -40.1986 0 -10.1302 41.248 5.49976 7.10543e-015 -4.4182 9.239 1.98785e-015 3.18055e-015 3.18055e-015 9.4119 3.9773 -0.7758 92.2201 -43.6054 109.652 0.7532 -40.9383 0 149.421 69.2856 -150.632 8.88178e-016 -40.1986 0 10.1232 41.2451 -5.50594 -1.77636e-015 -4.4182 9.239 -5.55597e-006 1.66266e-006 -4.69529e-006 
39.6061 17.9905 61.3468 89.3108 -89.7452 -90.4221 -7.10543e-015 8.7983 -4.7612 0.249769 4.0836 -0.159132 0 8.0291 0.4195 0.512904 8.16644 -0.337454 -7.10543e-015 9.9351 -2.2114 0.512905 8.16642 -0.337454 7.10543e-015 22.3885 -0.4656 -1.47518e-006 16.0476 6.20543e-007 -0.0001 12.643 3.4389 -4.4428e-008 -24.0027 -8.16924e-008 2.2603 21.606 7.4023 -25.2121 16.6131 -0.556368 13.5163 -1.1332 -5.0146 124.965 -57.2852 35.7774 -0.0995 -28.05 -0.2431 -75.9219 -84.4136 -68.8206 0.0679 -23.3996 -0.1402 48.1551 22.4852 29.2516 0.7932 -9.069 2.5189 1.39149e-015 -3.18055e-015 -7.95139e-016 -0.8272 -3.3923 0.5977 1.39149e-015 -3.18055e-015 -0 -0.5649 -2.3158 0.4082 1.39149e-015 0 -0 0.9159 -9.2044 0.2193 1.39149e-015 -3.18055e-015 -7.95139e-016 0.0117 -4.1944 -0.0248 -0.012806 0.00231814 8.63562e-005 0.0071 -2.3249 -0.0142 3.97569e-016 3.18055e-015 -0 0.6113 -8.7231 -2.0637 1.39149e-015 -3.18055e-015 -7.95139e-016 -0.1927 -3.8059 -0.2383 -0.0160301 0.00299613 0.000855415 -0.1091 -2.1688 -0.1362 -7.95139e-016 -6.36111e-015 7.95139e-016 -0.6151 -8.0947 -3.5641 1.39149e-015 -3.18055e-015 -7.95139e-016 -0.4882 -2.341 -0.6462 -0.0125478 0.00310901 0.00281876 -0.3575 -1.7167 -0.4742 -2.98177e-015 3.18055e-015 7.95139e-016 -1.42 -1.8761 1.4223 1.39149e-015 -3.18055e-015 -7.95139e-016 -1.1471 -3.4929 2.6334 1.39149e-015 -3.18055e-015 -0 -0.823 -2.3 1.6571 1.39149e-015 0 -0 -2.2603 21.606 7.4023 22.3595 6.84161 -8.39924 -13.5187 -1.1334 -5.0155 -106.292 -69.9063 -20.726 0.0994 -28.0499 -0.2431 41.7862 -82.7921 33.9922 -0.0679 -23.3996 -0.1402 -51.4866 18.9086 -14.1904 -0.7932 -9.0691 2.5189 -3.69332e-008 2.62531e-008 1.85193e-006 0.8272 -3.3923 0.5977 3.69332e-008 -2.62531e-008 -1.85193e-006 0.565 -2.3158 0.4082 -3.69332e-008 2.62531e-008 1.85193e-006 -0.916 -9.2044 0.2193 -3.69332e-008 2.62531e-008 1.85193e-006 -0.0117 -4.1944 -0.0248 0.0129021 0.00230507 -9.34426e-005 -0.0071 -2.3249 -0.0142 -4.24562e-007 -4.97849e-007 2.85679e-006 -0.6113 -8.7231 -2.0637 -3.69332e-008 2.62531e-008 1.85193e-006 0.1927 -3.8059 -0.2383 0.0162848 0.00302251 -0.000873897 0.1091 -2.1688 -0.1362 3.66882e-007 1.64407e-006 7.48035e-007 0.6151 -8.0947 -3.564 -3.69332e-008 2.62531e-008 1.85193e-006 0.4882 -2.341 -0.6462 0.0146459 0.00369091 -0.00327317 0.3574 -1.7166 -0.4742 1.59028e-015 -3.18055e-015 1.59028e-015 1.4199 -1.8761 1.4221 -3.69332e-008 2.62531e-008 1.85193e-006 1.1472 -3.4929 2.6336 3.69332e-008 -2.62531e-008 -1.85193e-006 0.8229 -2.3 1.6571 -3.69332e-008 2.62531e-008 1.85193e-006 -9.412 3.9771 -0.7758 -92.2223 -43.6081 -109.665 -0.7531 -40.938 0 -149.417 69.2884 150.615 0 -40.1986 -1.42109e-014 -10.1302 41.248 5.49977 0 -4.4182 9.239 9.37965e-007 2.23106e-006 1.42462e-006 9.4119 3.9773 -0.7758 92.2201 -43.6054 109.652 0.7532 -40.9383 0 149.421 69.2857 -150.632 8.88178e-016 -40.1986 0 10.1232 41.2451 -5.50596 -1.77636e-015 -4.4182 9.23901 -8.32483e-006 8.28502e-007 9.35663e-007 
39.6061 17.9905 61.3468 89.3108 -89.7452 -90.4221 0 8.7983 -4.7612 0.250131 3.89362 -0.157019 -7.10543e-015 8.0291 0.4195 0.512769 7.7865 -0.332275 0 9.9351 -2.2114 0.512771 7.78653 -0.332276 -7.10543e-015 22.3885 -0.4656 8.66663e-007 16.3975 -3.01913e-007 -0.0001 12.643 3.4389 3.60088e-008 -24.0027 -1.42008e-007 2.2603 21.606 7.4023 -25.3076 17.2967 -0.915331 13.5163 -1.1332 -5.0146 124.623 -57.0658 35.4782 -0.0995 -28.05 -0.2431 -65.2883 -84.0354 -58.1981 0.0679 -23.3996 -0.1402 47.6146 22.088 29.8325 0.7932 -9.069 2.5189 5.96354e-016 -3.18055e-015 7.95139e-016 -0.8272 -3.3923 0.5977 7.95139e-016 0 1.59028e-015 -0.5649 -2.3158 0.4082 -1.19271e-015 0 7.95139e-016 0.9159 -9.2044 0.2193 5.96354e-016 -3.18055e-015 7.95139e-016 0.0117 -4.1944 -0.0248 -0.0128341 0.00232674 8.77223e-005 0.0071 -2.3249 -0.0142 1.98785e-016 0 -7.95139e-016 0.6113 -8.7231 -2.0637 5.96354e-016 -3.18055e-015 7.95139e-016 -0.1927 -3.8059 -0.2383 -0.0161092 0.00300428 0.000863934 -0.1091 -2.1688 -0.1362 -9.93923e-016 -2.54444e-014 -1.59028e-015 -0.6151 -8.0947 -3.5641 5.96354e-016 -3.18055e-015 7.95139e-016 -0.4882 -2.341 -0.6462 -0.0126517 0.00313691 0.00284128 -0.3575 -1.7167 -0.4742 -3.97569e-016 9.54166e-015 7.95139e-016 -1.42 -1.8761 1.4223 5.96354e-016 -3.18055e-015 7.95139e-016 -1.1471 -3.4929 2.6334 7.95139e-016 0 1.59028e-015 -0.823 -2.3 1.6571 -1.19271e-015 0 7.95139e-016 -2.2603 21.606 7.4023 22.3925 7.48153 -8.0827 -13.5187 -1.1334 -5.0155 -106.293 -69.9064 -20.7262 0.0994 -28.0499 -0.2431 36.3188 -81.8957 28.5478 -0.0679 -23.3996 -0.1402 -51.0394 18.5949 -14.8405 -0.7932 -9.0691 2.5189 -8.82781e-032 -3.18055e-015 -1.59028e-015 0.8272 -3.3923 0.5977 1.76556e-031 -6.36111e-015 1.59028e-015 0.565 -2.3158 0.4082 7.95139e-016 -6.36111e-015 -0 -0.916 -9.2044 0.2193 -8.82781e-032 -3.18055e-015 -1.59028e-015 -0.0117 -4.1944 -0.0248 0.0129658 0.00232332 -9.16245e-005 -0.0071 -2.3249 -0.0142 2.38542e-015 0 -0 -0.6113 -8.7231 -2.0637 -8.82781e-032 -3.18055e-015 -1.59028e-015 0.1927 -3.8059 -0.2383 0.016285 0.003028 -0.000872459 0.1091 -2.1688 -0.1362 1.76556e-031 6.36111e-015 -1.59028e-015 0.6151 -8.0947 -3.564 -8.82781e-032 -3.18055e-015 -1.59028e-015 0.4882 -2.341 -0.6462 0.0146253 0.00369674 -0.00327283 0.3574 -1.7166 -0.4742 -7.60206e-006 -1.85015e-006 -1.97936e-006 1.4199 -1.8761 1.4221 -8.82781e-032 -3.18055e-015 -1.59028e-015 1.1472 -3.4929 2.6336 1.76556e-031 -6.36111e-015 1.59028e-015 0.8229 -2.3 1.6571 7.95139e-016 -6.36111e-015 -0 -9.412 3.9771 -0.7758 -92.2224 -43.6082 -109.665 -0.7531 -40.938 -7.10543e-015 -149.417 69.2884 150.615 -7.10543e-015 -40.1986 0 -10.1302 41.248 5.49975 0 -4.4182 9.239 -6.16233e-015 -5.96518e-006 -5.1684e-015 9.4119 3.9773 -0.7758 92.22 -43.6054 109.652 0.7532 -40.9383 0 149.421 69.2856 -150.632 8.88178e-016 -40.1986 0 10.1232 41.2451 -5.50594 2.66453e-015 -4.4182 9.23901 -5.55597e-006 1.66266e-006 -4.69529e-006 
